/* XPM */
static char * border_xpm[] = {
"16 16 110 2",
"  	c #D8E1EA",
". 	c #C7D0D9",
"+ 	c #BBC4CD",
"@ 	c #BCC4CD",
"# 	c #BDC4CE",
"$ 	c #BDC3CD",
"% 	c #BCC3CD",
"& 	c #BCC3CB",
"* 	c #BDC4CC",
"= 	c #B8BFC7",
"- 	c #999FA7",
"; 	c #D5DEE7",
"> 	c #AEB6BF",
", 	c #8F97A1",
"' 	c #9098A2",
") 	c #9098A1",
"! 	c #9198A2",
"~ 	c #9097A1",
"{ 	c #8F96A0",
"] 	c #8F969F",
"^ 	c #9197A0",
"/ 	c #9299A2",
"( 	c #838991",
"_ 	c #676D75",
": 	c #AEB7C0",
"< 	c #8F97A0",
"[ 	c #8F98A1",
"} 	c #9199A2",
"| 	c #838992",
"1 	c #686D75",
"2 	c #D4DCE5",
"3 	c #ACB5BE",
"4 	c #8E969F",
"5 	c #8E97A0",
"6 	c #8E959F",
"7 	c #858993",
"8 	c #696C75",
"9 	c #D3DCE5",
"0 	c #9198A1",
"a 	c #696B76",
"b 	c #D5DDE7",
"c 	c #ADB6BF",
"d 	c #9097A0",
"e 	c #8F98A0",
"f 	c #9096A0",
"g 	c #9196A0",
"h 	c #868993",
"i 	c #C9D0DA",
"j 	c #A4ACB5",
"k 	c #8A919B",
"l 	c #8A9099",
"m 	c #8B919A",
"n 	c #8A919A",
"o 	c #8A9199",
"p 	c #899099",
"q 	c #8B9099",
"r 	c #8E919A",
"s 	c #81848C",
"t 	c #676A73",
"u 	c #686E78",
"v 	c #696F78",
"w 	c #697078",
"x 	c #696F77",
"y 	c #697077",
"z 	c #686E76",
"A 	c #6A6F77",
"B 	c #6B6E77",
"C 	c #6B6F77",
"D 	c #666972",
"E 	c #DDE4EE",
"F 	c #DCE3EC",
"G 	c #DAE1EA",
"H 	c #DBE2EB",
"I 	c #DAE0E9",
"J 	c #DCE2EB",
"K 	c #DDE2EB",
"L 	c #DBE0EA",
"M 	c #B9BDC5",
"N 	c #D6DDE7",
"O 	c #838994",
"P 	c #696C76",
"Q 	c #D5DCE6",
"R 	c #ACB4BD",
"S 	c #828892",
"T 	c #666B75",
"U 	c #AEB6C0",
"V 	c #848B95",
"W 	c #686B76",
"X 	c #838A94",
"Y 	c #686D77",
"Z 	c #848993",
"` 	c #676A74",
" .	c #D4DBE4",
"..	c #8E959E",
"+.	c #9096A1",
"@.	c #8E96A0",
"#.	c #828791",
"$.	c #666B74",
"%.	c #8A9097",
"&.	c #798087",
"*.	c #697079",
"=.	c #6B727C",
"-.	c #6A717B",
";.	c #6B717B",
">.	c #6B727A",
",.	c #6B727B",
"'.	c #6A717A",
").	c #6A7179",
"!.	c #676C76",
"~.	c #5C626C",
"  . + @ # # # # $ % % & * * = - ",
"; > , ' ) ) ! ~ ~ { ~ ] ^ / ( _ ",
"; : < < ' [ ) { { { { < ~ } | 1 ",
"2 3 4 5 < 5 { { { { 6 < [ < 7 8 ",
"9 : 4 [ [ < { { < { < { 0 { 7 a ",
"b c d e d < f { { { f 6 ~ g h a ",
"i j k l m n m m o l p p q r s t ",
"u v w x x x x x x x y z A B C D ",
"E F G G H H H G G G G I J K L M ",
"N > { ~ ! ! ! ~ ~ d ~ ~ ! ! O P ",
"Q R { < < { < { ~ { { { ~ { S T ",
"N U < ) [ ! ~ < ~ { { { ) ' V W ",
"; : d [ [ ' ! { { { ~ { } [ X Y ",
"2 c 0 [ [ , { { { { { 6 ! 0 Z ` ",
" .R ..[ < , { +.+.{ @.{ { ! #.$.",
"%.&.*.=.-.;.>.,.,.'.).'.;.'.!.~."};
