/* XPM */
static char * clicked_tile_hover_xpm[] = {
"16 16 3 1",
" 	c #B9B9B9",
".	c #E0E0E0",
"+	c #E2E2E2",
" .++++++++++++++",
" .++++++++++++++",
" .++++++++++++++",
" .++++++++++++++",
" .++++++++++++++",
" .++++++++++++++",
" .++++++++++++++",
" .++++++++++++++",
" .++++++++++++++",
" .++++++++++++++",
" .++++++++++++++",
" .++++++++++++++",
" .++++++++++++++",
" .++++++++++++++",
" .++++++++++++++",
" .++++++++++++++"};
