/* XPM */
static char *result[] = {
/* columns rows colors chars-per-pixel */
"16 16 37 1 ",
"  c #C0C0C0",
". c #BEBEC1",
"X c #BDBDC1",
"o c #C6C6BE",
"O c #6A6ADC",
"+ c #1313F9",
"@ c #5F5FE0",
"# c #C5C5BE",
"$ c #C8C8BE",
"% c #6868DD",
"& c #0D0DFB",
"* c blue",
"= c #4B4BE6",
"- c #C7C7BE",
"; c #C8C8BD",
": c #6767DD",
"> c #0E0EFA",
", c #4D4DE6",
"< c #C2C2BF",
"1 c #6060E0",
"2 c #0808FC",
"3 c #C1C1C0",
"4 c #8484D4",
"5 c #7373D9",
"6 c #2E2EF0",
"7 c #CDCDBC",
"8 c #4F4FE5",
"9 c #C4C4BF",
"0 c #CCCCBC",
"q c #9191CF",
"w c #8383D4",
"e c #3333EE",
"r c #C3C3BF",
"t c #5252E4",
"y c #2525F3",
"u c #2929F2",
"i c white",
/* pixels */
"                ",
"       .X.      ",
"      oO+@#     ",
"     $%&*=-     ",
"    ;:>**,o     ",
"   <12***,o     ",
"   3456**,o     ",
"    #78**,o     ",
"     o,**,o     ",
"    908**809    ",
"   3qwe**ewq3   ",
"   96******69   ",
"   rtyuuuuytr   ",
"    33333333    ",
"                ",
"                "
};
