/* XPM */
static char * nb_1_hover_xpm[] = {
"16 16 28 1",
" 	c #DCDCDC",
".	c #DBDBDD",
"+	c #E0E0DB",
"@	c #ADADEC",
"#	c #7D7DFC",
"$	c #A7A7EE",
"%	c #DFDFDB",
"&	c #E1E1DB",
"*	c #ACACEC",
"=	c #7979FD",
"-	c #7272FF",
";	c #9C9CF1",
">	c #ABABEC",
",	c #7A7AFC",
"'	c #9D9DF1",
")	c #DDDDDC",
"!	c #7777FD",
"~	c #BBBBE7",
"{	c #B2B2EA",
"]	c #8C8CF7",
"^	c #E3E3DA",
"/	c #9E9EF1",
"(	c #DEDEDC",
"_	c #C2C2E5",
":	c #8E8EF6",
"<	c #A0A0F0",
"[	c #8787F8",
"}	c #8989F8",
"                ",
"       ...      ",
"      +@#$%     ",
"     &*=-;+     ",
"    &>,--'+     ",
"   )$!---'+     ",
"   )~{]--'+     ",
"    %^/--'+     ",
"     +'--'+     ",
"    (^/--/^(    ",
"   )_~:--:~_)   ",
"   (]------](   ",
"   (<[}}}}[<(   ",
"    ))))))))    ",
"                ",
"                "};
