/* XPM */
static char * nb_2_hover_xpm[] = {
"16 16 3 1",
" 	c #B9B9B9",
".	c #DCDCDC",
"+	c #2CFF2C",
"                ",
" ...............",
" ...............",
" ...++++++++....",
" ..++++++++++...",
" ..+++....+++...",
" .........+++...",
" .......++++....",
" .....+++++.....",
" ...+++++.......",
" ..++++.........",
" ..++++++++++...",
" ..++++++++++...",
" ...............",
" ...............",
" ..............."};
