/* XPM */
static char *result[] = {
/* columns rows colors chars-per-pixel */
"16 16 31 1 ",
"  c #484848",
". c #7E7E7E",
"X c #848484",
"o c gray28",
"O c #868686",
"+ c #BBBBBB",
"@ c #BCBCBC",
"# c gray75",
"$ c #C1BDBD",
"% c #C4B5B5",
"& c #C0C0C0",
"* c #BEC2C2",
"= c #CE9595",
"- c #FC0808",
"; c #FC0B0B",
": c #D18D8D",
"> c #C0C1C1",
", c #FB0B0B",
"< c #FE0404",
"1 c red",
"2 c #CB9F9F",
"3 c #BFC2C2",
"4 c #C2BBBB",
"5 c #EA3F3F",
"6 c #CC9D9D",
"7 c #C1BCBC",
"8 c #BEC5C5",
"9 c #D87676",
"0 c #FD0505",
"q c #D18B8B",
"w c white",
/* pixels */
" .XXXXXXXXXXXXXX",
"oO+@@@@@@@@@@@@@",
"oO#$%%%%%%%%$&&&",
"oO*=-;;;;;;-:>&&",
"oO*=-;;;;,<1-23&",
"oO#$%%%%%451163&",
"oO#&&&7%%451-23&",
"oO#&&890;,<1q>&&",
"oO#&&890;,<1q>&&",
"oO#&&&7%%451-23&",
"oO#$%%%%%451163&",
"oO*=-;;;;,<1-23&",
"oO*=-;;;;;;-:>&&",
"oO#$%%%%%%%%$&&&",
"oO#&&&&&&&&&&&&&",
"oO#&&&&&&&&&&&&&"
};
