/* XPM */
static char * nb_3_hover_xpm[] = {
"16 16 25 1",
" 	c #999999",
".	c #B7B7B7",
"+	c #BBBBBB",
"@	c #BCBCBC",
"#	c #D9D9D9",
"$	c #DADADA",
"%	c #DBDBDB",
"&	c #DDDADA",
"*	c #DED6D6",
"=	c #DCDCDC",
"-	c #DBDDDD",
";	c #E4C4C4",
">	c #FD7676",
",	c #FD7878",
"'	c #E5C0C0",
")	c #DCDDDD",
"!	c #FE7474",
"~	c #FF7171",
"{	c #E2CACA",
"]	c #DDD9D9",
"^	c #F39494",
"/	c #E3C9C9",
"(	c #DBDFDF",
"_	c #E9B3B3",
":	c #E5BFBF",
" .++++++++++++++",
" @#$$$$$$$$$$$$$",
" @%&********&===",
" @-;>,,,,,,>')==",
" @-;>,,,,,!~>{-=",
" @%&*****]^~~/-=",
" @%===&**]^~>{-=",
" @%==(_!,,!~:)==",
" @%==(_!,,!~:)==",
" @%===&**]^~>{-=",
" @%&*****]^~~/-=",
" @-;>,,,,,!~>{-=",
" @-;>,,,,,,>')==",
" @%&********&===",
" @%=============",
" @%============="};
