/* XPM */
static char * nb_4_hover_xpm[] = {
"16 16 40 1",
" 	c #9A9A9A",
".	c #B8B8B8",
"+	c #BBBBBB",
"@	c #999999",
"#	c #BCBCBC",
"$	c #D9D9D9",
"%	c #DADADA",
"&	c #DCDCDC",
"*	c #DADADC",
"=	c #D6D6DA",
"-	c #D9D9DB",
";	c #DBDBDC",
">	c #DFDFDD",
",	c #B9B9D1",
"'	c #3838F7",
")	c #3535F9",
"!	c #B1B1CE",
"~	c #A4A4CA",
"{	c #3E3EF3",
"]	c #C4C4D4",
"^	c #DEDEDD",
"/	c #DDDDDD",
"(	c #B3B3CE",
"_	c #2B2BFF",
":	c #2C2CFF",
"<	c #9E9ECB",
"[	c #C3C3D4",
"}	c #C0C0D3",
"|	c #3333FA",
"1	c #9F9FCB",
"2	c #E1E1DE",
"3	c #9A9ACB",
"4	c #DDDDDC",
"5	c #9696CC",
"6	c #BFBFD2",
"7	c #C5C5D4",
"8	c #4444EF",
"9	c #CACAD6",
"0	c #E0E0DD",
"a	c #9999CB",
" .++++++++++++++",
"@#$%%%%%%%%%%%%%",
"@#&&&*==--==;&&&",
"@#&&>,')!~'{]^&&",
"@#&&/(_:!<_:[^&&",
"@#&^}|_123_:[^&&",
"@#&4,:_1/5_:64&&",
"@#47'::'8)::{9/&",
"@#4]{8888)::{9/&",
"@#&;====-5_:64&&",
"@#&&&&&&0a_:[^&&",
"@#&&&&&&0a_:[^&&",
"@#&&&&&&01'{]^&&",
"@#&&&&&&&-==;&&&",
"@#&&&&&&&&&&&&&&",
"@#&&&&&&&&&&&&&&"};
