/* XPM */
static char *result[] = {
/* columns rows colors chars-per-pixel */
"16 16 47 1 ",
"  c #484848",
". c #7E7E7E",
"X c #848484",
"o c gray28",
"O c #868686",
"+ c #BBBBBB",
"@ c #BCBCBC",
"# c gray75",
"$ c #C0C0C0",
"% c #BCBCBF",
"& c #B5B5BC",
"* c #BBBBBE",
"= c #BABABE",
"- c #BDBDBF",
"; c #C5C5C2",
": c #8181AB",
"> c #050582",
", c #040481",
"< c #7171A6",
"1 c #5B5B9E",
"2 c #080883",
"3 c #9595B2",
"4 c #C3C3C1",
"5 c #C2C2C1",
"6 c #7676A7",
"7 c #00007E",
"8 c navy",
"9 c #7272A6",
"0 c #54549C",
"q c #00007F",
"w c #9393B1",
"e c #C4C4C1",
"r c #8C8CAF",
"t c #030381",
"y c #55559C",
"u c #C8C8C3",
"i c #4F4F9A",
"p c #C1C1C0",
"a c #4A4A99",
"s c #8B8BAE",
"d c #C2C2C0",
"f c #9696B2",
"g c #0B0B84",
"h c #9F9FB5",
"j c #C6C6C2",
"k c #4E4E9A",
"l c white",
/* pixels */
" .XXXXXXXXXXXXXX",
"oO+@@@@@@@@@@@@@",
"oO#$$%&&*=&&-$$$",
"oO#$;:>,<1>234$$",
"oO#$5678907qw4$$",
"oO#ert7yui7qw4$$",
"oO#p:q7y5a7qsp$$",
"oOdf>88>g,882h5$",
"oOd32gggg,882h5$",
"oO#-&&&&*a7qsp$$",
"oO#$$$$$jk7qw4$$",
"oO#$$$$$jk7qw4$$",
"oO#$$$$$jy>234$$",
"oO#$$$$$$=&&-$$$",
"oO#$$$$$$$$$$$$$",
"oO#$$$$$$$$$$$$$"
};
