/* XPM */
static char *result[] = {
/* columns rows colors chars-per-pixel */
"16 16 39 1 ",
"  c #808080",
". c #848484",
"X c #818181",
"o c #484848",
"O c #868686",
"+ c gray73",
"@ c #BCBCBC",
"# c gray72",
"$ c #4E4E4E",
"% c gray53",
"& c gray",
"* c #BFBEBE",
"= c #BCB5B5",
"- c #BFBDBD",
"; c #C0C0C0",
": c #BBBBBB",
"> c #BEBFBF",
", c #B59F9F",
"< c #830A0A",
"1 c #840B0B",
"2 c #830808",
"3 c #B29595",
"4 c #C1C3C3",
"5 c #B49D9D",
"6 c #800000",
"7 c #810404",
"8 c #7E0000",
"9 c #953F3F",
"0 c #BEBBBB",
"q c #820707",
"w c #AC8484",
"e c #C0C1C1",
"r c #820505",
"t c #B29696",
"y c #994A4A",
"u c #7F0000",
"i c #B19393",
"p c gray74",
"a c white",
/* pixels */
" .............Xo",
"O+@@@@@@@@@@@@#$",
"%&*=========-;:$",
"%>,<1111111234:$",
"%>566711111234:$",
"%>56890=====-;:$",
"%>56890====-;;:$",
"%>56671111qwe;:$",
"%>,<1111176rt4:$",
"%&*=====0y8ui4:$",
"%&*=====0y8ui4:$",
"%>,<1111176rt4:$",
"%>,<111111qwe;:$",
"%&*========-;;:$",
"%p;;;;;;;;;;;;:$",
"%p;;;;;;;;;;;;:$"
};
