/* XPM */
static char * nb_5_hover_xpm[] = {
"16 16 33 1",
" 	c #B9B9B9",
".	c #BBBBBB",
"+	c #9A9A9A",
"@	c #BCBCBC",
"#	c #D9D9D9",
"$	c #DADADA",
"%	c #D8D8D8",
"&	c #9D9D9D",
"*	c #BDBDBD",
"=	c #DBDBDB",
"-	c #DCDBDB",
";	c #DAD6D6",
">	c #DCDCDC",
",	c #DBDCDC",
"'	c #D6CACA",
")	c #F14242",
"!	c #EF4444",
"~	c #F33E3E",
"{	c #D4C4C4",
"]	c #DDDEDE",
"^	c #D6C9C9",
"/	c #FF2C2C",
"(	c #F93535",
"_	c #FF2B2B",
":	c #CE8B8B",
"<	c #DBD9D9",
"[	c #F43C3C",
"}	c #D1BBBB",
"|	c #DCDDDD",
"1	c #F73838",
"2	c #D4C5C5",
"3	c #CC9696",
"4	c #D4C3C3",
" ............. +",
"@#$$$$$$$$$$$$%&",
"*=-;;;;;;;;;->#&",
"*,')!!!!!!!~{]#&",
"*,^//(!!!!!~{]#&",
"*,^/_:<;;;;;->#&",
"*,^/_:<;;;;->>#&",
"*,^//(!!!![}|>#&",
"*,')!!!!!(/12]#&",
"*=-;;;;;<3_/4]#&",
"*=-;;;;;<3_/4]#&",
"*,')!!!!!(/12]#&",
"*,')!!!!!![}|>#&",
"*=-;;;;;;;;->>#&",
"*=>>>>>>>>>>>>#&",
"*=>>>>>>>>>>>>#&"};
