/* XPM */
static char * nb_7_hover_xpm[] = {
"16 16 32 1",
" 	c #B9B9B9",
".	c #BBBBBB",
"+	c #9A9A9A",
"@	c #BCBCBC",
"#	c #D9D9D9",
"$	c #DADADA",
"%	c #D8D8D8",
"&	c #9D9D9D",
"*	c #BDBDBD",
"=	c #DBDBDB",
"-	c #D6D6D6",
";	c #DCDCDC",
">	c #CACACA",
",	c #787878",
"'	c #777777",
")	c #C4C4C4",
"!	c #DEDEDE",
"~	c #747474",
"{	c #727272",
"]	c #C3C3C3",
"^	c #9B9B9B",
"/	c #757575",
"(	c #C5C5C5",
"_	c #E0E0E0",
":	c #A7A7A7",
"<	c #DDDDDD",
"[	c #A1A1A1",
"}	c #C0C0C0",
"|	c #ADADAD",
"1	c #B3B3B3",
"2	c #737373",
"3	c #DFDFDF",
" ............. +",
"@#$$$$$$$$$$$$%&",
"*==---------=;#&",
"*;>,,,,,,,,')!#&",
"*;>,,,,,,~{{]!#&",
"*==-----#^{{]!#&",
"*=;;;;;;;^{/(!#&",
"*=;;;;;_:{{ <;#&",
"*=;;;;;<[{~}!;#&",
"*=;;;;_|{{1<;;#&",
"*=;;;;<:{2 3;;#&",
"*=;;;31{{|<;;;#&",
"*=;;;31//13;;;#&",
"*=;;;;$--$;;;;#&",
"*=;;;;;;;;;;;;#&",
"*=;;;;;;;;;;;;#&"};
