/* XPM */
static char * nb_8_hover_xpm[] = {
"16 16 2 1",
" 	c #B9B9B9",
".	c #DCDCDC",
"                ",
" ...............",
" ...............",
" ...        ....",
" ..          ...",
" ..   ....   ...",
" ..   ....   ...",
" ...        ....",
" ...        ....",
" ..   ....   ...",
" ..   ....   ...",
" ..          ...",
" ...        ....",
" ...............",
" ...............",
" ..............."};
